<?xml version='1.0' encoding='utf-8'?>
<mlt LC_NUMERIC="C" producer="main_bin" version="7.1.0" root="C:/Users/User/Desktop/localfarm">
 <profile frame_rate_num="25" sample_aspect_num="1" display_aspect_den="9" colorspace="709" progressive="1" description="HD 1080p 25 fps" display_aspect_num="16" frame_rate_den="1" width="1920" height="1080" sample_aspect_den="1"/>
 <producer id="producer0" in="00:00:00.000" out="00:13:06.600">
  <property name="length">19666</property>
  <property name="eof">pause</property>
  <property name="resource">C:/Users/User/Desktop/videoplayback.mp4</property>
  <property name="audio_index">1</property>
  <property name="video_index">0</property>
  <property name="mute_on_pause">0</property>
  <property name="mlt_service">avformat-novalidate</property>
  <property name="meta.media.nb_streams">2</property>
  <property name="meta.media.0.stream.type">video</property>
  <property name="meta.media.0.stream.frame_rate">25</property>
  <property name="meta.media.0.stream.sample_aspect_ratio">0</property>
  <property name="meta.media.0.codec.width">1280</property>
  <property name="meta.media.0.codec.height">720</property>
  <property name="meta.media.0.codec.rotate">0</property>
  <property name="meta.media.0.codec.pix_fmt">yuv420p</property>
  <property name="meta.media.0.codec.sample_aspect_ratio">1</property>
  <property name="meta.media.0.codec.colorspace">709</property>
  <property name="meta.media.0.codec.color_trc">1</property>
  <property name="meta.media.0.codec.name">h264</property>
  <property name="meta.media.0.codec.long_name">H.264 / AVC / MPEG-4 AVC / MPEG-4 part 10</property>
  <property name="meta.media.0.codec.bit_rate">1260031</property>
  <property name="meta.attr.0.stream.creation_time.markup">2021-08-04T06:51:58.000000Z</property>
  <property name="meta.attr.0.stream.handler_name.markup">ISO Media file produced by Google Inc. Created on: 08/03/2021.</property>
  <property name="meta.attr.0.stream.vendor_id.markup">[0][0][0][0]</property>
  <property name="meta.media.1.stream.type">audio</property>
  <property name="meta.media.1.codec.sample_fmt">fltp</property>
  <property name="meta.media.1.codec.sample_rate">44100</property>
  <property name="meta.media.1.codec.channels">2</property>
  <property name="meta.media.1.codec.name">aac</property>
  <property name="meta.media.1.codec.long_name">AAC (Advanced Audio Coding)</property>
  <property name="meta.media.1.codec.bit_rate">128004</property>
  <property name="meta.attr.1.stream.creation_time.markup">2021-08-04T06:51:58.000000Z</property>
  <property name="meta.attr.1.stream.handler_name.markup">ISO Media file produced by Google Inc. Created on: 08/03/2021.</property>
  <property name="meta.attr.1.stream.vendor_id.markup">[0][0][0][0]</property>
  <property name="meta.attr.major_brand.markup">mp42</property>
  <property name="meta.attr.minor_version.markup">0</property>
  <property name="meta.attr.compatible_brands.markup">isommp42</property>
  <property name="meta.attr.creation_time.markup">2021-08-04T06:51:58.000000Z</property>
  <property name="seekable">1</property>
  <property name="meta.media.sample_aspect_num">1</property>
  <property name="meta.media.sample_aspect_den">1</property>
  <property name="aspect_ratio">1</property>
  <property name="kdenlive:clipname"/>
  <property name="meta.media.frame_rate_num">25</property>
  <property name="meta.media.frame_rate_den">1</property>
  <property name="meta.media.colorspace">709</property>
  <property name="meta.media.color_trc">1</property>
  <property name="meta.media.has_b_frames">1</property>
  <property name="meta.media.width">1280</property>
  <property name="meta.media.height">720</property>
  <property name="meta.media.color_range">mpeg</property>
  <property name="kdenlive:folderid">-1</property>
  <property name="meta.media.top_field_first">0</property>
  <property name="meta.media.progressive">1</property>
  <property name="kdenlive:id">2</property>
  <property name="kdenlive:file_size">137062468</property>
  <property name="kdenlive:file_hash">5f07f2d4434a90964f7a2639f06bdc7d</property>
  <property name="kdenlive:audio_max1">249</property>
  <property name="kdenlive:zone_in">0</property>
  <property name="kdenlive:zone_out">19666</property>
 </producer>
 <playlist id="main_bin">
  <property name="kdenlive:docproperties.activeTrack">0</property>
  <property name="kdenlive:docproperties.audioChannels">2</property>
  <property name="kdenlive:docproperties.audioTarget">-1</property>
  <property name="kdenlive:docproperties.disablepreview">0</property>
  <property name="kdenlive:docproperties.documentid">1634201502468</property>
  <property name="kdenlive:docproperties.enableTimelineZone">1</property>
  <property name="kdenlive:docproperties.enableexternalproxy">0</property>
  <property name="kdenlive:docproperties.enableproxy">0</property>
  <property name="kdenlive:docproperties.externalproxyparams"/>
  <property name="kdenlive:docproperties.generateimageproxy">0</property>
  <property name="kdenlive:docproperties.generateproxy">0</property>
  <property name="kdenlive:docproperties.groups">[
    {
        "children": [
            {
                "data": "2:1800",
                "leaf": "clip",
                "type": "Leaf"
            },
            {
                "data": "1:1800",
                "leaf": "clip",
                "type": "Leaf"
            }
        ],
        "type": "AVSplit"
    },
    {
        "children": [
            {
                "data": "1:1169",
                "leaf": "clip",
                "type": "Leaf"
            },
            {
                "data": "2:1169",
                "leaf": "clip",
                "type": "Leaf"
            }
        ],
        "type": "AVSplit"
    },
    {
        "children": [
            {
                "data": "3:1105",
                "leaf": "clip",
                "type": "Leaf"
            },
            {
                "data": "0:1105",
                "leaf": "clip",
                "type": "Leaf"
            }
        ],
        "type": "AVSplit"
    },
    {
        "children": [
            {
                "data": "2:0",
                "leaf": "clip",
                "type": "Leaf"
            },
            {
                "data": "1:0",
                "leaf": "clip",
                "type": "Leaf"
            }
        ],
        "type": "AVSplit"
    },
    {
        "children": [
            {
                "data": "0:506",
                "leaf": "clip",
                "type": "Leaf"
            },
            {
                "data": "3:506",
                "leaf": "clip",
                "type": "Leaf"
            }
        ],
        "type": "AVSplit"
    },
    {
        "children": [
            {
                "data": "2:552",
                "leaf": "clip",
                "type": "Leaf"
            },
            {
                "data": "1:552",
                "leaf": "clip",
                "type": "Leaf"
            }
        ],
        "type": "AVSplit"
    },
    {
        "children": [
            {
                "data": "0:617",
                "leaf": "clip",
                "type": "Leaf"
            },
            {
                "data": "3:617",
                "leaf": "clip",
                "type": "Leaf"
            }
        ],
        "type": "AVSplit"
    },
    {
        "children": [
            {
                "data": "2:636",
                "leaf": "clip",
                "type": "Leaf"
            },
            {
                "data": "1:636",
                "leaf": "clip",
                "type": "Leaf"
            }
        ],
        "type": "AVSplit"
    },
    {
        "children": [
            {
                "data": "0:727",
                "leaf": "clip",
                "type": "Leaf"
            },
            {
                "data": "3:727",
                "leaf": "clip",
                "type": "Leaf"
            }
        ],
        "type": "AVSplit"
    },
    {
        "children": [
            {
                "data": "1:841",
                "leaf": "clip",
                "type": "Leaf"
            },
            {
                "data": "2:841",
                "leaf": "clip",
                "type": "Leaf"
            }
        ],
        "type": "AVSplit"
    },
    {
        "children": [
            {
                "data": "1:454",
                "leaf": "clip",
                "type": "Leaf"
            },
            {
                "data": "2:454",
                "leaf": "clip",
                "type": "Leaf"
            }
        ],
        "type": "AVSplit"
    },
    {
        "children": [
            {
                "data": "3:941",
                "leaf": "clip",
                "type": "Leaf"
            },
            {
                "data": "0:941",
                "leaf": "clip",
                "type": "Leaf"
            }
        ],
        "type": "AVSplit"
    },
    {
        "children": [
            {
                "data": "1:997",
                "leaf": "clip",
                "type": "Leaf"
            },
            {
                "data": "2:997",
                "leaf": "clip",
                "type": "Leaf"
            }
        ],
        "type": "AVSplit"
    },
    {
        "children": [
            {
                "data": "0:1541",
                "leaf": "clip",
                "type": "Leaf"
            },
            {
                "data": "3:1541",
                "leaf": "clip",
                "type": "Leaf"
            }
        ],
        "type": "AVSplit"
    },
    {
        "children": [
            {
                "data": "2:1305",
                "leaf": "clip",
                "type": "Leaf"
            },
            {
                "data": "1:1305",
                "leaf": "clip",
                "type": "Leaf"
            }
        ],
        "type": "AVSplit"
    },
    {
        "children": [
            {
                "data": "1:2555",
                "leaf": "clip",
                "type": "Leaf"
            },
            {
                "data": "2:2555",
                "leaf": "clip",
                "type": "Leaf"
            }
        ],
        "type": "AVSplit"
    },
    {
        "children": [
            {
                "data": "1:1623",
                "leaf": "clip",
                "type": "Leaf"
            },
            {
                "data": "2:1623",
                "leaf": "clip",
                "type": "Leaf"
            }
        ],
        "type": "AVSplit"
    },
    {
        "children": [
            {
                "data": "3:1729",
                "leaf": "clip",
                "type": "Leaf"
            },
            {
                "data": "0:1729",
                "leaf": "clip",
                "type": "Leaf"
            }
        ],
        "type": "AVSplit"
    },
    {
        "children": [
            {
                "data": "0:2099",
                "leaf": "clip",
                "type": "Leaf"
            },
            {
                "data": "3:2099",
                "leaf": "clip",
                "type": "Leaf"
            }
        ],
        "type": "AVSplit"
    },
    {
        "children": [
            {
                "data": "3:2952",
                "leaf": "clip",
                "type": "Leaf"
            },
            {
                "data": "0:2952",
                "leaf": "clip",
                "type": "Leaf"
            }
        ],
        "type": "AVSplit"
    },
    {
        "children": [
            {
                "data": "3:2664",
                "leaf": "clip",
                "type": "Leaf"
            },
            {
                "data": "0:2664",
                "leaf": "clip",
                "type": "Leaf"
            }
        ],
        "type": "AVSplit"
    },
    {
        "children": [
            {
                "data": "0:1384",
                "leaf": "clip",
                "type": "Leaf"
            },
            {
                "data": "3:1384",
                "leaf": "clip",
                "type": "Leaf"
            }
        ],
        "type": "AVSplit"
    },
    {
        "children": [
            {
                "data": "0:2233",
                "leaf": "clip",
                "type": "Leaf"
            },
            {
                "data": "3:2233",
                "leaf": "clip",
                "type": "Leaf"
            }
        ],
        "type": "AVSplit"
    },
    {
        "children": [
            {
                "data": "2:2160",
                "leaf": "clip",
                "type": "Leaf"
            },
            {
                "data": "1:2160",
                "leaf": "clip",
                "type": "Leaf"
            }
        ],
        "type": "AVSplit"
    },
    {
        "children": [
            {
                "data": "2:1214",
                "leaf": "clip",
                "type": "Leaf"
            },
            {
                "data": "1:1214",
                "leaf": "clip",
                "type": "Leaf"
            }
        ],
        "type": "AVSplit"
    },
    {
        "children": [
            {
                "data": "0:2446",
                "leaf": "clip",
                "type": "Leaf"
            },
            {
                "data": "3:2446",
                "leaf": "clip",
                "type": "Leaf"
            }
        ],
        "type": "AVSplit"
    },
    {
        "children": [
            {
                "data": "0:1255",
                "leaf": "clip",
                "type": "Leaf"
            },
            {
                "data": "3:1255",
                "leaf": "clip",
                "type": "Leaf"
            }
        ],
        "type": "AVSplit"
    },
    {
        "children": [
            {
                "data": "3:431",
                "leaf": "clip",
                "type": "Leaf"
            },
            {
                "data": "0:431",
                "leaf": "clip",
                "type": "Leaf"
            }
        ],
        "type": "AVSplit"
    },
    {
        "children": [
            {
                "data": "1:2870",
                "leaf": "clip",
                "type": "Leaf"
            },
            {
                "data": "2:2870",
                "leaf": "clip",
                "type": "Leaf"
            }
        ],
        "type": "AVSplit"
    },
    {
        "children": [
            {
                "data": "2:1450",
                "leaf": "clip",
                "type": "Leaf"
            },
            {
                "data": "1:1450",
                "leaf": "clip",
                "type": "Leaf"
            }
        ],
        "type": "AVSplit"
    },
    {
        "children": [
            {
                "data": "2:2313",
                "leaf": "clip",
                "type": "Leaf"
            },
            {
                "data": "1:2313",
                "leaf": "clip",
                "type": "Leaf"
            }
        ],
        "type": "AVSplit"
    }
]
</property>
  <property name="kdenlive:docproperties.kdenliveversion">21.08.2</property>
  <property name="kdenlive:docproperties.position">3246</property>
  <property name="kdenlive:docproperties.previewextension"/>
  <property name="kdenlive:docproperties.previewparameters"/>
  <property name="kdenlive:docproperties.profile">atsc_1080p_25</property>
  <property name="kdenlive:docproperties.proxyextension"/>
  <property name="kdenlive:docproperties.proxyimageminsize">2000</property>
  <property name="kdenlive:docproperties.proxyimagesize">800</property>
  <property name="kdenlive:docproperties.proxyminsize">1000</property>
  <property name="kdenlive:docproperties.proxyparams"/>
  <property name="kdenlive:docproperties.proxyresize">640</property>
  <property name="kdenlive:docproperties.scrollPos">0</property>
  <property name="kdenlive:docproperties.seekOffset">30000</property>
  <property name="kdenlive:docproperties.version">1.04</property>
  <property name="kdenlive:docproperties.verticalzoom">1</property>
  <property name="kdenlive:docproperties.videoTarget">-1</property>
  <property name="kdenlive:docproperties.zonein">0</property>
  <property name="kdenlive:docproperties.zoneout">75</property>
  <property name="kdenlive:docproperties.zoom">10</property>
  <property name="kdenlive:expandedFolders"/>
  <property name="kdenlive:documentnotes"/>
  <property name="xml_retain">1</property>
  <entry producer="producer0" in="00:00:00.000" out="00:13:06.600"/>
 </playlist>
 <producer id="black_track" in="00:00:00.000" out="00:22:15.760">
  <property name="length">2147483647</property>
  <property name="eof">continue</property>
  <property name="resource">black</property>
  <property name="aspect_ratio">1</property>
  <property name="mlt_service">color</property>
  <property name="mlt_image_format">rgb24a</property>
  <property name="set.test_audio">0</property>
 </producer>
 <producer id="producer1" in="00:00:00.000" out="00:13:06.600">
  <property name="length">19666</property>
  <property name="eof">pause</property>
  <property name="resource">C:/Users/User/Desktop/videoplayback.mp4</property>
  <property name="audio_index">1</property>
  <property name="video_index">0</property>
  <property name="mute_on_pause">0</property>
  <property name="mlt_service">avformat-novalidate</property>
  <property name="seekable">1</property>
  <property name="aspect_ratio">1</property>
  <property name="kdenlive:clipname"/>
  <property name="kdenlive:folderid">-1</property>
  <property name="kdenlive:id">2</property>
  <property name="kdenlive:file_size">137062468</property>
  <property name="kdenlive:file_hash">5f07f2d4434a90964f7a2639f06bdc7d</property>
  <property name="kdenlive:audio_max1">249</property>
  <property name="xml">was here</property>
  <property name="meta.media.nb_streams">2</property>
  <property name="meta.media.0.stream.type">video</property>
  <property name="meta.media.0.stream.frame_rate">25</property>
  <property name="meta.media.0.stream.sample_aspect_ratio">0</property>
  <property name="meta.media.0.codec.width">1280</property>
  <property name="meta.media.0.codec.height">720</property>
  <property name="meta.media.0.codec.rotate">0</property>
  <property name="meta.media.0.codec.pix_fmt">yuv420p</property>
  <property name="meta.media.0.codec.sample_aspect_ratio">1</property>
  <property name="meta.media.0.codec.colorspace">709</property>
  <property name="meta.media.0.codec.color_trc">1</property>
  <property name="meta.media.0.codec.name">h264</property>
  <property name="meta.media.0.codec.long_name">H.264 / AVC / MPEG-4 AVC / MPEG-4 part 10</property>
  <property name="meta.media.0.codec.bit_rate">1260031</property>
  <property name="meta.attr.0.stream.creation_time.markup">2021-08-04T06:51:58.000000Z</property>
  <property name="meta.attr.0.stream.handler_name.markup">ISO Media file produced by Google Inc. Created on: 08/03/2021.</property>
  <property name="meta.attr.0.stream.vendor_id.markup">[0][0][0][0]</property>
  <property name="meta.media.1.stream.type">audio</property>
  <property name="meta.media.1.codec.sample_fmt">fltp</property>
  <property name="meta.media.1.codec.sample_rate">44100</property>
  <property name="meta.media.1.codec.channels">2</property>
  <property name="meta.media.1.codec.name">aac</property>
  <property name="meta.media.1.codec.long_name">AAC (Advanced Audio Coding)</property>
  <property name="meta.media.1.codec.bit_rate">128004</property>
  <property name="meta.attr.1.stream.creation_time.markup">2021-08-04T06:51:58.000000Z</property>
  <property name="meta.attr.1.stream.handler_name.markup">ISO Media file produced by Google Inc. Created on: 08/03/2021.</property>
  <property name="meta.attr.1.stream.vendor_id.markup">[0][0][0][0]</property>
  <property name="meta.attr.major_brand.markup">mp42</property>
  <property name="meta.attr.minor_version.markup">0</property>
  <property name="meta.attr.compatible_brands.markup">isommp42</property>
  <property name="meta.attr.creation_time.markup">2021-08-04T06:51:58.000000Z</property>
  <property name="meta.media.sample_aspect_num">1</property>
  <property name="meta.media.sample_aspect_den">1</property>
  <property name="meta.media.frame_rate_num">25</property>
  <property name="meta.media.frame_rate_den">1</property>
  <property name="meta.media.colorspace">709</property>
  <property name="meta.media.color_trc">1</property>
  <property name="meta.media.has_b_frames">1</property>
  <property name="meta.media.width">1280</property>
  <property name="meta.media.height">720</property>
  <property name="meta.media.color_range">mpeg</property>
  <property name="meta.media.top_field_first">0</property>
  <property name="meta.media.progressive">1</property>
  <property name="set.test_audio">0</property>
  <property name="set.test_image">1</property>
 </producer>
 <playlist id="playlist0">
  <property name="kdenlive:audio_track">1</property>
  <blank length="00:00:17.240"/>
  <entry producer="producer1" in="00:03:59.880" out="00:04:00.760">
   <property name="kdenlive:id">2</property>
  </entry>
  <blank length="00:00:02.080"/>
  <entry producer="producer1" in="00:04:02.960" out="00:04:04.760">
   <property name="kdenlive:id">2</property>
  </entry>
  <blank length="00:00:02.600"/>
  <entry producer="producer1" in="00:04:07.440" out="00:04:08.160">
   <property name="kdenlive:id">2</property>
  </entry>
  <blank length="00:00:03.640"/>
  <entry producer="producer1" in="00:04:39.800" out="00:04:44.320">
   <property name="kdenlive:id">2</property>
  </entry>
  <blank length="00:00:04.000"/>
  <entry producer="producer1" in="00:05:41.200" out="00:05:43.400">
   <property name="kdenlive:id">2</property>
  </entry>
  <blank length="00:00:04.320"/>
  <entry producer="producer1" in="00:05:47.840" out="00:05:50.360">
   <property name="kdenlive:id">2</property>
  </entry>
  <blank length="00:00:03.440"/>
  <entry producer="producer1" in="00:05:53.840" out="00:05:55.800">
   <property name="kdenlive:id">2</property>
  </entry>
  <blank length="00:00:03.160"/>
  <entry producer="producer1" in="00:05:59.000" out="00:06:01.600">
   <property name="kdenlive:id">2</property>
  </entry>
  <blank length="00:00:03.640"/>
  <entry producer="producer1" in="00:06:05.280" out="00:06:08.520">
   <property name="kdenlive:id">2</property>
  </entry>
  <blank length="00:00:04.240"/>
  <entry producer="producer1" in="00:06:18.720" out="00:06:21.520">
   <property name="kdenlive:id">2</property>
  </entry>
  <blank length="00:00:11.960"/>
  <entry producer="producer1" in="00:07:30.880" out="00:07:33.280">
   <property name="kdenlive:id">2</property>
  </entry>
  <blank length="00:00:02.920"/>
  <entry producer="producer1" in="00:07:36.240" out="00:07:39.400">
   <property name="kdenlive:id">2</property>
  </entry>
  <blank length="00:00:05.320"/>
  <entry producer="producer1" in="00:07:44.760" out="00:07:49.080">
   <property name="kdenlive:id">2</property>
  </entry>
  <blank length="00:00:04.360"/>
  <entry producer="producer1" in="00:07:53.760" out="00:08:01.960">
   <property name="kdenlive:id">2</property>
  </entry>
  <blank length="00:00:03.280"/>
  <entry producer="producer1" in="00:12:48.960" out="00:13:06.600">
   <property name="kdenlive:id">2</property>
  </entry>
 </playlist>
 <playlist id="playlist1">
  <property name="kdenlive:audio_track">1</property>
 </playlist>
 <tractor id="tractor0" in="00:00:00.000" out="00:02:15.720">
  <property name="kdenlive:audio_track">1</property>
  <property name="kdenlive:trackheight">67</property>
  <property name="kdenlive:timeline_active">1</property>
  <property name="kdenlive:collapsed">28</property>
  <property name="kdenlive:thumbs_format"/>
  <property name="kdenlive:audio_rec"/>
  <property name="kdenlive:locked_track"/>
  <track hide="both" producer="playlist0"/>
  <track hide="both" producer="playlist1"/>
  <filter id="filter0">
   <property name="window">75</property>
   <property name="max_gain">20dB</property>
   <property name="mlt_service">volume</property>
   <property name="internal_added">237</property>
   <property name="disable">1</property>
  </filter>
  <filter id="filter1">
   <property name="channel">-1</property>
   <property name="mlt_service">panner</property>
   <property name="internal_added">237</property>
   <property name="start">0.5</property>
   <property name="disable">1</property>
  </filter>
  <filter id="filter2">
   <property name="iec_scale">0</property>
   <property name="mlt_service">audiolevel</property>
   <property name="disable">1</property>
  </filter>
 </tractor>
 <producer id="producer2" in="00:00:00.000" out="00:13:06.600">
  <property name="length">19666</property>
  <property name="eof">pause</property>
  <property name="resource">C:/Users/User/Desktop/videoplayback.mp4</property>
  <property name="audio_index">1</property>
  <property name="video_index">0</property>
  <property name="mute_on_pause">0</property>
  <property name="mlt_service">avformat-novalidate</property>
  <property name="seekable">1</property>
  <property name="aspect_ratio">1</property>
  <property name="kdenlive:clipname"/>
  <property name="kdenlive:folderid">-1</property>
  <property name="kdenlive:id">2</property>
  <property name="kdenlive:file_size">137062468</property>
  <property name="kdenlive:file_hash">5f07f2d4434a90964f7a2639f06bdc7d</property>
  <property name="kdenlive:audio_max1">249</property>
  <property name="kdenlive:zone_in">0</property>
  <property name="kdenlive:zone_out">19666</property>
  <property name="xml">was here</property>
  <property name="meta.media.nb_streams">2</property>
  <property name="meta.media.0.stream.type">video</property>
  <property name="meta.media.0.stream.frame_rate">25</property>
  <property name="meta.media.0.stream.sample_aspect_ratio">0</property>
  <property name="meta.media.0.codec.width">1280</property>
  <property name="meta.media.0.codec.height">720</property>
  <property name="meta.media.0.codec.rotate">0</property>
  <property name="meta.media.0.codec.pix_fmt">yuv420p</property>
  <property name="meta.media.0.codec.sample_aspect_ratio">1</property>
  <property name="meta.media.0.codec.colorspace">709</property>
  <property name="meta.media.0.codec.color_trc">1</property>
  <property name="meta.media.0.codec.name">h264</property>
  <property name="meta.media.0.codec.long_name">H.264 / AVC / MPEG-4 AVC / MPEG-4 part 10</property>
  <property name="meta.media.0.codec.bit_rate">1260031</property>
  <property name="meta.attr.0.stream.creation_time.markup">2021-08-04T06:51:58.000000Z</property>
  <property name="meta.attr.0.stream.handler_name.markup">ISO Media file produced by Google Inc. Created on: 08/03/2021.</property>
  <property name="meta.attr.0.stream.vendor_id.markup">[0][0][0][0]</property>
  <property name="meta.media.1.stream.type">audio</property>
  <property name="meta.media.1.codec.sample_fmt">fltp</property>
  <property name="meta.media.1.codec.sample_rate">44100</property>
  <property name="meta.media.1.codec.channels">2</property>
  <property name="meta.media.1.codec.name">aac</property>
  <property name="meta.media.1.codec.long_name">AAC (Advanced Audio Coding)</property>
  <property name="meta.media.1.codec.bit_rate">128004</property>
  <property name="meta.attr.1.stream.creation_time.markup">2021-08-04T06:51:58.000000Z</property>
  <property name="meta.attr.1.stream.handler_name.markup">ISO Media file produced by Google Inc. Created on: 08/03/2021.</property>
  <property name="meta.attr.1.stream.vendor_id.markup">[0][0][0][0]</property>
  <property name="meta.attr.major_brand.markup">mp42</property>
  <property name="meta.attr.minor_version.markup">0</property>
  <property name="meta.attr.compatible_brands.markup">isommp42</property>
  <property name="meta.attr.creation_time.markup">2021-08-04T06:51:58.000000Z</property>
  <property name="meta.media.sample_aspect_num">1</property>
  <property name="meta.media.sample_aspect_den">1</property>
  <property name="meta.media.frame_rate_num">25</property>
  <property name="meta.media.frame_rate_den">1</property>
  <property name="meta.media.colorspace">709</property>
  <property name="meta.media.color_trc">1</property>
  <property name="meta.media.has_b_frames">1</property>
  <property name="meta.media.width">1280</property>
  <property name="meta.media.height">720</property>
  <property name="meta.media.color_range">mpeg</property>
  <property name="meta.media.top_field_first">0</property>
  <property name="meta.media.progressive">1</property>
  <property name="set.test_audio">0</property>
  <property name="set.test_image">1</property>
 </producer>
 <playlist id="playlist2">
  <property name="kdenlive:audio_track">1</property>
  <entry producer="producer2" in="00:00:00.000" out="00:00:17.200">
   <property name="kdenlive:id">2</property>
  </entry>
  <blank length="00:00:00.920"/>
  <entry producer="producer2" in="00:04:00.840" out="00:04:02.880">
   <property name="kdenlive:id">2</property>
  </entry>
  <blank length="00:00:01.840"/>
  <entry producer="producer2" in="00:04:04.840" out="00:04:07.400">
   <property name="kdenlive:id">2</property>
  </entry>
  <blank length="00:00:00.760"/>
  <entry producer="producer2" in="00:04:36.120" out="00:04:39.720">
   <property name="kdenlive:id">2</property>
  </entry>
  <blank length="00:00:04.560"/>
  <entry producer="producer2" in="00:04:44.400" out="00:04:48.360">
   <property name="kdenlive:id">2</property>
  </entry>
  <blank length="00:00:02.240"/>
  <entry producer="producer2" in="00:05:43.480" out="00:05:47.760">
   <property name="kdenlive:id">2</property>
  </entry>
  <blank length="00:00:02.560"/>
  <entry producer="producer2" in="00:05:50.400" out="00:05:52.160">
   <property name="kdenlive:id">2</property>
  </entry>
  <entry producer="producer2" in="00:05:52.200" out="00:05:53.800">
   <property name="kdenlive:id">2</property>
  </entry>
  <blank length="00:00:02.000"/>
  <entry producer="producer2" in="00:05:55.840" out="00:05:58.960">
   <property name="kdenlive:id">2</property>
  </entry>
  <blank length="00:00:02.640"/>
  <entry producer="producer2" in="00:06:01.640" out="00:06:05.240">
   <property name="kdenlive:id">2</property>
  </entry>
  <blank length="00:00:03.280"/>
  <entry producer="producer2" in="00:06:14.480" out="00:06:18.680">
   <property name="kdenlive:id">2</property>
  </entry>
  <blank length="00:00:02.840"/>
  <entry producer="producer2" in="00:06:43.960" out="00:06:55.880">
   <property name="kdenlive:id">2</property>
  </entry>
  <blank length="00:00:02.440"/>
  <entry producer="producer2" in="00:07:33.320" out="00:07:36.200">
   <property name="kdenlive:id">2</property>
  </entry>
  <blank length="00:00:03.200"/>
  <entry producer="producer2" in="00:07:39.440" out="00:07:44.720">
   <property name="kdenlive:id">2</property>
  </entry>
  <blank length="00:00:04.360"/>
  <entry producer="producer2" in="00:07:49.400" out="00:07:53.720">
   <property name="kdenlive:id">2</property>
  </entry>
  <blank length="00:00:08.240"/>
  <entry producer="producer2" in="00:08:02.000" out="00:08:05.240">
   <property name="kdenlive:id">2</property>
  </entry>
 </playlist>
 <playlist id="playlist3">
  <property name="kdenlive:audio_track">1</property>
 </playlist>
 <tractor id="tractor1" in="00:00:00.000" out="00:01:58.040">
  <property name="kdenlive:audio_track">1</property>
  <property name="kdenlive:trackheight">67</property>
  <property name="kdenlive:timeline_active">1</property>
  <property name="kdenlive:collapsed">0</property>
  <property name="kdenlive:thumbs_format"/>
  <property name="kdenlive:audio_rec"/>
  <property name="kdenlive:locked_track">1</property>
  <track hide="video" producer="playlist2"/>
  <track hide="video" producer="playlist3"/>
  <filter id="filter3">
   <property name="window">75</property>
   <property name="max_gain">20dB</property>
   <property name="mlt_service">volume</property>
   <property name="internal_added">237</property>
   <property name="disable">1</property>
  </filter>
  <filter id="filter4">
   <property name="channel">-1</property>
   <property name="mlt_service">panner</property>
   <property name="internal_added">237</property>
   <property name="start">0.5</property>
   <property name="disable">1</property>
  </filter>
  <filter id="filter5">
   <property name="iec_scale">0</property>
   <property name="mlt_service">audiolevel</property>
   <property name="disable">1</property>
  </filter>
 </tractor>
 <producer id="producer3" in="00:00:00.000" out="00:13:06.600">
  <property name="length">19666</property>
  <property name="eof">pause</property>
  <property name="resource">C:/Users/User/Desktop/videoplayback.mp4</property>
  <property name="audio_index">1</property>
  <property name="video_index">0</property>
  <property name="mute_on_pause">0</property>
  <property name="mlt_service">avformat-novalidate</property>
  <property name="seekable">1</property>
  <property name="aspect_ratio">1</property>
  <property name="kdenlive:clipname"/>
  <property name="kdenlive:folderid">-1</property>
  <property name="kdenlive:id">2</property>
  <property name="kdenlive:file_size">137062468</property>
  <property name="kdenlive:file_hash">5f07f2d4434a90964f7a2639f06bdc7d</property>
  <property name="kdenlive:audio_max1">249</property>
  <property name="kdenlive:zone_in">0</property>
  <property name="kdenlive:zone_out">19666</property>
  <property name="xml">was here</property>
  <property name="meta.media.nb_streams">2</property>
  <property name="meta.media.0.stream.type">video</property>
  <property name="meta.media.0.stream.frame_rate">25</property>
  <property name="meta.media.0.stream.sample_aspect_ratio">0</property>
  <property name="meta.media.0.codec.width">1280</property>
  <property name="meta.media.0.codec.height">720</property>
  <property name="meta.media.0.codec.rotate">0</property>
  <property name="meta.media.0.codec.pix_fmt">yuv420p</property>
  <property name="meta.media.0.codec.sample_aspect_ratio">1</property>
  <property name="meta.media.0.codec.colorspace">709</property>
  <property name="meta.media.0.codec.color_trc">1</property>
  <property name="meta.media.0.codec.name">h264</property>
  <property name="meta.media.0.codec.long_name">H.264 / AVC / MPEG-4 AVC / MPEG-4 part 10</property>
  <property name="meta.media.0.codec.bit_rate">1260031</property>
  <property name="meta.attr.0.stream.creation_time.markup">2021-08-04T06:51:58.000000Z</property>
  <property name="meta.attr.0.stream.handler_name.markup">ISO Media file produced by Google Inc. Created on: 08/03/2021.</property>
  <property name="meta.attr.0.stream.vendor_id.markup">[0][0][0][0]</property>
  <property name="meta.media.1.stream.type">audio</property>
  <property name="meta.media.1.codec.sample_fmt">fltp</property>
  <property name="meta.media.1.codec.sample_rate">44100</property>
  <property name="meta.media.1.codec.channels">2</property>
  <property name="meta.media.1.codec.name">aac</property>
  <property name="meta.media.1.codec.long_name">AAC (Advanced Audio Coding)</property>
  <property name="meta.media.1.codec.bit_rate">128004</property>
  <property name="meta.attr.1.stream.creation_time.markup">2021-08-04T06:51:58.000000Z</property>
  <property name="meta.attr.1.stream.handler_name.markup">ISO Media file produced by Google Inc. Created on: 08/03/2021.</property>
  <property name="meta.attr.1.stream.vendor_id.markup">[0][0][0][0]</property>
  <property name="meta.attr.major_brand.markup">mp42</property>
  <property name="meta.attr.minor_version.markup">0</property>
  <property name="meta.attr.compatible_brands.markup">isommp42</property>
  <property name="meta.attr.creation_time.markup">2021-08-04T06:51:58.000000Z</property>
  <property name="meta.media.sample_aspect_num">1</property>
  <property name="meta.media.sample_aspect_den">1</property>
  <property name="meta.media.frame_rate_num">25</property>
  <property name="meta.media.frame_rate_den">1</property>
  <property name="meta.media.colorspace">709</property>
  <property name="meta.media.color_trc">1</property>
  <property name="meta.media.has_b_frames">1</property>
  <property name="meta.media.width">1280</property>
  <property name="meta.media.height">720</property>
  <property name="meta.media.color_range">mpeg</property>
  <property name="meta.media.top_field_first">0</property>
  <property name="meta.media.progressive">1</property>
  <property name="set.test_audio">1</property>
  <property name="set.test_image">0</property>
 </producer>
 <playlist id="playlist4">
  <entry producer="producer3" in="00:00:00.000" out="00:00:17.200">
   <property name="kdenlive:id">2</property>
  </entry>
  <blank length="00:00:00.920"/>
  <entry producer="producer3" in="00:04:00.840" out="00:04:02.880">
   <property name="kdenlive:id">2</property>
  </entry>
  <blank length="00:00:01.840"/>
  <entry producer="producer3" in="00:04:04.840" out="00:04:07.400">
   <property name="kdenlive:id">2</property>
  </entry>
  <blank length="00:00:00.760"/>
  <entry producer="producer3" in="00:04:36.120" out="00:04:39.720">
   <property name="kdenlive:id">2</property>
  </entry>
  <blank length="00:00:04.560"/>
  <entry producer="producer3" in="00:04:44.400" out="00:04:48.360">
   <property name="kdenlive:id">2</property>
  </entry>
  <blank length="00:00:02.240"/>
  <entry producer="producer3" in="00:05:43.480" out="00:05:47.760">
   <property name="kdenlive:id">2</property>
  </entry>
  <blank length="00:00:02.560"/>
  <entry producer="producer3" in="00:05:50.400" out="00:05:52.160">
   <property name="kdenlive:id">2</property>
  </entry>
  <entry producer="producer3" in="00:05:52.200" out="00:05:53.800">
   <property name="kdenlive:id">2</property>
  </entry>
  <blank length="00:00:02.000"/>
  <entry producer="producer3" in="00:05:55.840" out="00:05:58.960">
   <property name="kdenlive:id">2</property>
  </entry>
  <blank length="00:00:02.640"/>
  <entry producer="producer3" in="00:06:01.640" out="00:06:05.240">
   <property name="kdenlive:id">2</property>
  </entry>
  <blank length="00:00:03.280"/>
  <entry producer="producer3" in="00:06:14.480" out="00:06:18.680">
   <property name="kdenlive:id">2</property>
  </entry>
  <blank length="00:00:02.840"/>
  <entry producer="producer3" in="00:06:43.960" out="00:06:55.880">
   <property name="kdenlive:id">2</property>
  </entry>
  <blank length="00:00:02.440"/>
  <entry producer="producer3" in="00:07:33.320" out="00:07:36.200">
   <property name="kdenlive:id">2</property>
  </entry>
  <blank length="00:00:03.200"/>
  <entry producer="producer3" in="00:07:39.440" out="00:07:44.720">
   <property name="kdenlive:id">2</property>
  </entry>
  <blank length="00:00:04.360"/>
  <entry producer="producer3" in="00:07:49.400" out="00:07:53.720">
   <property name="kdenlive:id">2</property>
  </entry>
  <blank length="00:00:08.240"/>
  <entry producer="producer3" in="00:08:02.000" out="00:08:05.240">
   <property name="kdenlive:id">2</property>
  </entry>
 </playlist>
 <playlist id="playlist5"/>
 <tractor id="tractor2" in="00:00:00.000" out="00:01:58.040">
  <property name="kdenlive:trackheight">67</property>
  <property name="kdenlive:timeline_active">1</property>
  <property name="kdenlive:collapsed">0</property>
  <property name="kdenlive:thumbs_format"/>
  <property name="kdenlive:audio_rec"/>
  <property name="kdenlive:locked_track">1</property>
  <track hide="audio" producer="playlist4"/>
  <track hide="audio" producer="playlist5"/>
 </tractor>
 <producer id="producer4" in="00:00:00.000" out="00:13:06.600">
  <property name="length">19666</property>
  <property name="eof">pause</property>
  <property name="resource">C:/Users/User/Desktop/videoplayback.mp4</property>
  <property name="audio_index">1</property>
  <property name="video_index">0</property>
  <property name="mute_on_pause">0</property>
  <property name="mlt_service">avformat-novalidate</property>
  <property name="seekable">1</property>
  <property name="aspect_ratio">1</property>
  <property name="kdenlive:clipname"/>
  <property name="kdenlive:folderid">-1</property>
  <property name="kdenlive:id">2</property>
  <property name="kdenlive:file_size">137062468</property>
  <property name="kdenlive:file_hash">5f07f2d4434a90964f7a2639f06bdc7d</property>
  <property name="kdenlive:audio_max1">249</property>
  <property name="xml">was here</property>
  <property name="meta.media.nb_streams">2</property>
  <property name="meta.media.0.stream.type">video</property>
  <property name="meta.media.0.stream.frame_rate">25</property>
  <property name="meta.media.0.stream.sample_aspect_ratio">0</property>
  <property name="meta.media.0.codec.width">1280</property>
  <property name="meta.media.0.codec.height">720</property>
  <property name="meta.media.0.codec.rotate">0</property>
  <property name="meta.media.0.codec.pix_fmt">yuv420p</property>
  <property name="meta.media.0.codec.sample_aspect_ratio">1</property>
  <property name="meta.media.0.codec.colorspace">709</property>
  <property name="meta.media.0.codec.color_trc">1</property>
  <property name="meta.media.0.codec.name">h264</property>
  <property name="meta.media.0.codec.long_name">H.264 / AVC / MPEG-4 AVC / MPEG-4 part 10</property>
  <property name="meta.media.0.codec.bit_rate">1260031</property>
  <property name="meta.attr.0.stream.creation_time.markup">2021-08-04T06:51:58.000000Z</property>
  <property name="meta.attr.0.stream.handler_name.markup">ISO Media file produced by Google Inc. Created on: 08/03/2021.</property>
  <property name="meta.attr.0.stream.vendor_id.markup">[0][0][0][0]</property>
  <property name="meta.media.1.stream.type">audio</property>
  <property name="meta.media.1.codec.sample_fmt">fltp</property>
  <property name="meta.media.1.codec.sample_rate">44100</property>
  <property name="meta.media.1.codec.channels">2</property>
  <property name="meta.media.1.codec.name">aac</property>
  <property name="meta.media.1.codec.long_name">AAC (Advanced Audio Coding)</property>
  <property name="meta.media.1.codec.bit_rate">128004</property>
  <property name="meta.attr.1.stream.creation_time.markup">2021-08-04T06:51:58.000000Z</property>
  <property name="meta.attr.1.stream.handler_name.markup">ISO Media file produced by Google Inc. Created on: 08/03/2021.</property>
  <property name="meta.attr.1.stream.vendor_id.markup">[0][0][0][0]</property>
  <property name="meta.attr.major_brand.markup">mp42</property>
  <property name="meta.attr.minor_version.markup">0</property>
  <property name="meta.attr.compatible_brands.markup">isommp42</property>
  <property name="meta.attr.creation_time.markup">2021-08-04T06:51:58.000000Z</property>
  <property name="meta.media.sample_aspect_num">1</property>
  <property name="meta.media.sample_aspect_den">1</property>
  <property name="meta.media.frame_rate_num">25</property>
  <property name="meta.media.frame_rate_den">1</property>
  <property name="meta.media.colorspace">709</property>
  <property name="meta.media.color_trc">1</property>
  <property name="meta.media.has_b_frames">1</property>
  <property name="meta.media.width">1280</property>
  <property name="meta.media.height">720</property>
  <property name="meta.media.color_range">mpeg</property>
  <property name="meta.media.top_field_first">0</property>
  <property name="meta.media.progressive">1</property>
  <property name="set.test_audio">1</property>
  <property name="set.test_image">0</property>
 </producer>
 <playlist id="playlist6">
  <blank length="00:00:17.240"/>
  <entry producer="producer4" in="00:03:59.880" out="00:04:00.760">
   <property name="kdenlive:id">2</property>
  </entry>
  <blank length="00:00:02.080"/>
  <entry producer="producer4" in="00:04:02.960" out="00:04:04.760">
   <property name="kdenlive:id">2</property>
  </entry>
  <blank length="00:00:02.600"/>
  <entry producer="producer4" in="00:04:07.440" out="00:04:08.160">
   <property name="kdenlive:id">2</property>
  </entry>
  <blank length="00:00:03.640"/>
  <entry producer="producer4" in="00:04:39.800" out="00:04:44.320">
   <property name="kdenlive:id">2</property>
  </entry>
  <blank length="00:00:04.000"/>
  <entry producer="producer4" in="00:05:41.200" out="00:05:43.400">
   <property name="kdenlive:id">2</property>
  </entry>
  <blank length="00:00:04.320"/>
  <entry producer="producer4" in="00:05:47.840" out="00:05:50.360">
   <property name="kdenlive:id">2</property>
  </entry>
  <blank length="00:00:03.440"/>
  <entry producer="producer4" in="00:05:53.840" out="00:05:55.800">
   <property name="kdenlive:id">2</property>
  </entry>
  <blank length="00:00:03.160"/>
  <entry producer="producer4" in="00:05:59.000" out="00:06:01.600">
   <property name="kdenlive:id">2</property>
  </entry>
  <blank length="00:00:03.640"/>
  <entry producer="producer4" in="00:06:05.280" out="00:06:08.520">
   <property name="kdenlive:id">2</property>
  </entry>
  <blank length="00:00:04.240"/>
  <entry producer="producer4" in="00:06:18.720" out="00:06:21.520">
   <property name="kdenlive:id">2</property>
  </entry>
  <blank length="00:00:11.960"/>
  <entry producer="producer4" in="00:07:30.880" out="00:07:33.280">
   <property name="kdenlive:id">2</property>
  </entry>
  <blank length="00:00:02.920"/>
  <entry producer="producer4" in="00:07:36.240" out="00:07:39.400">
   <property name="kdenlive:id">2</property>
  </entry>
  <blank length="00:00:05.320"/>
  <entry producer="producer4" in="00:07:44.760" out="00:07:49.080">
   <property name="kdenlive:id">2</property>
  </entry>
  <blank length="00:00:04.360"/>
  <entry producer="producer4" in="00:07:53.760" out="00:08:01.960">
   <property name="kdenlive:id">2</property>
  </entry>
  <blank length="00:00:03.280"/>
  <entry producer="producer4" in="00:12:48.960" out="00:13:06.600">
   <property name="kdenlive:id">2</property>
  </entry>
 </playlist>
 <playlist id="playlist7"/>
 <tractor id="tractor3" in="00:00:00.000" out="00:02:15.720">
  <property name="kdenlive:trackheight">67</property>
  <property name="kdenlive:timeline_active">1</property>
  <property name="kdenlive:collapsed">0</property>
  <property name="kdenlive:thumbs_format"/>
  <property name="kdenlive:audio_rec"/>
  <property name="kdenlive:locked_track">1</property>
  <track hide="audio" producer="playlist6"/>
  <track hide="audio" producer="playlist7"/>
 </tractor>
 <tractor id="tractor4" in="00:00:00.000" out="00:22:15.760">
  <track producer="black_track"/>
  <track producer="tractor0"/>
  <track producer="tractor1"/>
  <track producer="tractor2"/>
  <track producer="tractor3"/>
  <transition id="transition0">
   <property name="a_track">0</property>
   <property name="b_track">1</property>
   <property name="mlt_service">mix</property>
   <property name="kdenlive_id">mix</property>
   <property name="internal_added">237</property>
   <property name="always_active">1</property>
   <property name="accepts_blanks">1</property>
   <property name="sum">1</property>
  </transition>
  <transition id="transition1">
   <property name="a_track">0</property>
   <property name="b_track">2</property>
   <property name="mlt_service">mix</property>
   <property name="kdenlive_id">mix</property>
   <property name="internal_added">237</property>
   <property name="always_active">1</property>
   <property name="accepts_blanks">1</property>
   <property name="sum">1</property>
  </transition>
  <transition id="transition2">
   <property name="a_track">0</property>
   <property name="b_track">3</property>
   <property name="compositing">0</property>
   <property name="distort">0</property>
   <property name="rotate_center">0</property>
   <property name="mlt_service">qtblend</property>
   <property name="kdenlive_id">qtblend</property>
   <property name="internal_added">237</property>
   <property name="always_active">1</property>
  </transition>
  <transition id="transition3">
   <property name="a_track">0</property>
   <property name="b_track">4</property>
   <property name="compositing">0</property>
   <property name="distort">0</property>
   <property name="rotate_center">0</property>
   <property name="mlt_service">qtblend</property>
   <property name="kdenlive_id">qtblend</property>
   <property name="internal_added">237</property>
   <property name="always_active">1</property>
  </transition>
  <filter id="filter6">
   <property name="window">75</property>
   <property name="max_gain">20dB</property>
   <property name="mlt_service">volume</property>
   <property name="internal_added">237</property>
   <property name="disable">1</property>
  </filter>
  <filter id="filter7">
   <property name="channel">-1</property>
   <property name="mlt_service">panner</property>
   <property name="internal_added">237</property>
   <property name="start">0.5</property>
   <property name="disable">1</property>
  </filter>
  <filter id="filter8">
   <property name="iec_scale">0</property>
   <property name="mlt_service">audiolevel</property>
   <property name="disable">1</property>
  </filter>
 </tractor>
</mlt>
